<svg id="Layer_1" data-name="Layer 1" xmlns="http://www.w3.org/2000/svg" viewBox="0 0 199.83 122.71"><defs><style>.cls-1{fill:#d21916;}.cls-2{fill:#098737;}.cls-3{fill:#ce7a11;}.cls-4{fill:#cd7a13;}.cls-5{fill:#cd7912;}.cls-6{fill:#cd7811;}</style></defs><path class="cls-1" d="M652.24,348.85c8.54-9.81,19.5-11,31.25-8.35,11.37,2.52,19.86,9.35,26.22,18.95,20.45,30.93,6.87,71-28,82.42a68.35,68.35,0,0,1-25.85,2.88c-11.53-.75-23-2.21-34.59-2.44-17.09-.34-34.19.18-51.28.23-8.23,0-16.41-.45-24.37-2.87-17.37-5.27-25.41-17.66-22.79-35.52a74.88,74.88,0,0,1,5-18.38c1.07-4.88,5-8.4,6.21-13.24,1.62-1.86,3.39-3.56,5.17-5.25,4.05-3.81,5.25-3.5,7.51,1.83.31,2-.61,3.93-.52,5.93.17,3.73,2.61,5.93,6.16,5.58s5.51-3.08,4.86-6.72c-.32-1.8-1.46-3.37-1.51-5.26a18.64,18.64,0,0,1,1.43-6.35c.51-1.51.6-3.64,2.77-3.69,2-.05,2.58,1.88,3.41,3.29a14.62,14.62,0,0,1,1.38,3.23c.59,2,0,4,0,5.95-.07,2.32.69,4.31,2.86,5.44a5.35,5.35,0,0,0,6.1-.7,5.87,5.87,0,0,0,2.31-6.19c-.35-1.63-1.51-3-1.57-4.73,2.49-6.1,3.81-6.6,9.07-3.13,2.37,1.56,5,2.75,7.13,4.63,2,4.27,4.42,8.18,8.76,10.5a37.36,37.36,0,0,0,8.3,6.46,181.6,181.6,0,0,0,43.8,17.29,33.1,33.1,0,0,0,16.45-.25c9.8-2.62,16.21-10.12,15.72-18.35-.57-9.43-8.66-17.81-18.47-19.07a31.7,31.7,0,0,0-3.52-.09c-2.3-4.27-4-8.93-8.75-11.39C652,351,651.9,349.88,652.24,348.85Z" transform="translate(-519.48 -322.22)"/><path class="cls-2" d="M564.16,365.85l-4-7c-2,3.39-2.36,6.83-3.42,10-3.53,2.36-7.09,2.29-10.68.12-1.38-4.12-3.21-4.35-5.93-.94a54.88,54.88,0,0,1-5.44,5.22c-3.75.22-6.74-1.74-9.8-3.48a44.52,44.52,0,0,1,1.49-4.25c4.54-9.72,4.94-19.59,1.64-29.79-2-6.16-.6-8.93,5.54-9.55,16.14-1.64,32.31-3,48.5-3.91,6.8-.39,8.69,1.23,9.5,7.74,1.4,11.2,4.65,21.85,8,32.53-3,1.8-5.71,4.09-9.21,4.92-2.26-1.41-4.54-2.79-6.77-4.24-5.36-3.47-5.35-3.48-8.33,2C571.57,366.59,567.94,367.62,564.16,365.85Z" transform="translate(-519.48 -322.22)"/><path class="cls-3" d="M652.24,348.85c.51,2.11,2.61,2.34,4,3.41a13,13,0,0,1,5.42,10.62c-.57,4.8-2.28,8.8-7.46,10.21a14.77,14.77,0,0,1-14.5-3.5c-3.14-2.86-3.69-6.61-2.53-10.66,1.36-4.78,4.35-7.82,9.27-8.89C648.37,349.63,650.5,350.17,652.24,348.85Z" transform="translate(-519.48 -322.22)"/><path class="cls-4" d="M524.85,369.78c3.86-.52,6.59,2.16,9.8,3.48-.4,5.17-4,8.61-6.75,12.52,0-1.42-.79-1.91-2.17-2.1-3.47-.49-5.73-2.32-6.18-6.05C519,373.43,521.13,371.08,524.85,369.78Z" transform="translate(-519.48 -322.22)"/><path class="cls-5" d="M590.29,367.47c2.69-2.36,5-5.35,9.21-4.92,3.1.94,6.14,2,6.34,5.95.23,4.56-2.91,6.66-6.46,8.39C593.55,376.45,591.89,372,590.29,367.47Z" transform="translate(-519.48 -322.22)"/><path class="cls-6" d="M564.16,365.85c3.65-.7,7.3-1.42,11-.6,2.2,2.79,3.33,5.79,1.56,9.22a7.7,7.7,0,0,1-6.45,4.18c-4.28.39-7.65-3.83-6.94-8.39C563.59,368.78,563.89,367.32,564.16,365.85Z" transform="translate(-519.48 -322.22)"/><path class="cls-6" d="M546,369l10.68-.12c.44.89.83,1.81,1.31,2.67a6.7,6.7,0,0,1-1.14,8.69c-2.34,2.3-5.36,2.55-8.38,1.16-3.26-1.51-3.92-4.36-3.58-7.55A41,41,0,0,1,546,369Z" transform="translate(-519.48 -322.22)"/></svg>