<?xml version="1.0" encoding="UTF-8"?>
<!DOCTYPE svg PUBLIC "-//W3C//DTD SVG 1.1//EN" "http://www.w3.org/Graphics/SVG/1.1/DTD/svg11.dtd">
<!-- Creator: CorelDRAW 2020 (64-Bit) -->
<svg xmlns="http://www.w3.org/2000/svg" xml:space="preserve" width="248px" height="351px" version="1.1" style="shape-rendering:geometricPrecision; text-rendering:geometricPrecision; image-rendering:optimizeQuality; fill-rule:evenodd; clip-rule:evenodd"
viewBox="0 0 248 350.74"
 xmlns:xlink="http://www.w3.org/1999/xlink"
 xmlns:xodm="http://www.corel.com/coreldraw/odm/2003">
 <defs>
  <style type="text/css">
   <![CDATA[
    .fil1 {fill:#098836}
    .fil3 {fill:#CD7512}
    .fil2 {fill:#CE7810}
    .fil0 {fill:#D21915}
   ]]>
  </style>
 </defs>
 <g id="Layer_x0020_1">
  <metadata id="CorelCorpID_0Corel-Layer"/>
  <g id="_3084178110656">
   <path class="fil0" d="M184.13 28.09c0.74,1.55 -0.25,0.14 1.35,1.36 0.85,0.64 0.61,0.23 1.34,1.15 0.88,1.1 0.99,1.91 1.2,3.35 11.66,0.42 12.62,15.94 -0.86,16.04 -6.91,0.04 -21.9,-6.72 -24.86,-10.19 -3.9,-0.82 -2.33,-1.89 -3.99,-4.03l-4.99 -2.91 -0.72 1.69c-0.12,1.73 0.82,1.95 0.36,4.5 -1,0.96 -1.52,1.52 -3.72,1.27 -2.43,-1.53 -1.87,-2.2 -1.55,-5.12l-1.94 -2.8 -1.18 4.06c1.18,2.53 1.47,5.5 -2,5.56 -3.51,0.07 -2.71,-3.09 -2.4,-5.5l-0.95 -1.78 -4.14 3.63c-1.06,-0.65 -1.82,-1.29 -3.7,-1.37 -3.45,1.55 -2.24,4.26 -0.74,5.13 1.3,0.75 1.1,0.16 2.09,1.36 -1.68,2.06 -4.15,12.57 0.09,17.79 3.71,4.55 9.89,5.62 17.26,5.7 7.5,0.09 15.05,-0.49 22.52,-0.16 6.99,0.32 14.71,2.07 21.65,0.45 12.04,-2.82 19.95,-12.36 16.57,-27.69 -3.4,-15.38 -20.4,-19.14 -26.69,-11.49z"/>
   <path class="fil1" d="M131.38 37c1.88,0.08 2.64,0.72 3.7,1.37l4.14 -3.63 0.95 1.78 4.4 -0.06 1.18 -4.06 1.94 2.8c1.15,-0.1 1.13,-0.24 2.42,-0.32 1.91,-0.12 1.02,0.46 2.49,-0.33l0.72 -1.69 4.99 2.91c1.73,-0.6 -0.07,0.19 0.87,-0.51 0.05,-0.05 0.66,-0.59 0.68,-0.6 1.2,-0.87 0.67,-0.6 2.44,-0.78 -0.82,-3.36 -2.14,-5.91 -2.65,-9.42 -0.65,-4.46 0,-7.22 -4.97,-7.31 -4.45,-0.07 -19.19,1.16 -22.14,2.62 -0.46,3.2 1.26,5.55 1.07,9.26 -0.18,3.5 -1.55,5.17 -2.23,7.97z"/>
   <path class="fil2" d="M188.02 33.95c-0.21,-1.44 -0.32,-2.25 -1.2,-3.35 -0.73,-0.92 -0.49,-0.51 -1.34,-1.15 -1.6,-1.22 -0.61,0.19 -1.35,-1.36 -2.15,1.22 -3.95,0.3 -5.46,2.46 -4.65,6.64 7.74,12.38 9.35,3.4z"/>
   <path class="fil2" d="M158.31 35.77c1.66,2.14 0.09,3.21 3.99,4.03 1.24,-0.94 2.33,-0.94 2.52,-2.89 0.2,-2.02 -0.93,-2.48 -2.52,-3.03 -1.77,0.18 -1.24,-0.09 -2.44,0.78 -0.02,0.01 -0.63,0.55 -0.68,0.6 -0.94,0.7 0.86,-0.09 -0.87,0.51z"/>
   <path class="fil2" d="M147.69 35.2c-0.32,2.92 -0.88,3.59 1.55,5.12 2.2,0.25 2.72,-0.31 3.72,-1.27 0.46,-2.55 -0.48,-2.77 -0.36,-4.5 -1.47,0.79 -0.58,0.21 -2.49,0.33 -1.29,0.08 -1.27,0.22 -2.42,0.32z"/>
   <path class="fil2" d="M144.57 36.46l-4.4 0.06c-0.31,2.41 -1.11,5.57 2.4,5.5 3.47,-0.06 3.18,-3.03 2,-5.56z"/>
  </g>
  <g id="_3084178112096">
   <path class="fil0" d="M103.8 41.77c-1.61,-2.36 -2.36,-1.53 -2.49,-4.91 -1.74,-0.82 -3.02,-2.52 -4.44,-3.49l-0.97 1.92c0.76,2.35 1.47,5.38 -2.02,5.44 -3.52,0.06 -3.25,-3.25 -2.31,-5.58l-1.57 -3.94 -1.52 2.99c0.14,2.4 0.81,5.71 -2.87,5.28 -3.07,-0.36 -2.71,-3.45 -1.84,-5.33l-1.15 -2.2 -5.08 3.33c-1.29,3.55 -0.07,2.7 -3.68,4.41 -3.03,2.77 -5.73,4.41 -10.41,6.45 -3.64,1.58 -8.5,4.14 -12.91,4.5 -13.53,1.1 -14.6,-13.16 -3.94,-15.78l1.55 -0.37c0.24,-3.3 1.93,-3.68 3.66,-5.55 -2.86,-4.52 -11.9,-4.33 -16.98,-1.42 -13.87,7.93 -15.04,36.78 8.95,40.83 6.86,1.16 14.13,-0.81 20.92,-1.45 12.38,-1.16 32.83,1.3 39.36,-6.81 3.56,-4.43 2.84,-13.54 -0.26,-18.32z"/>
   <path class="fil1" d="M73.89 33.32c3.5,1.03 1.77,0.86 3.65,1.96l5.08 -3.33 1.15 2.2 4.71 0.05 1.52 -2.99 1.57 3.94 4.33 0.14 0.97 -1.92c1.42,0.97 2.7,2.67 4.44,3.49 1.04,-1.46 1.07,-1.22 3.31,-1.85 -0.42,-2.39 -2.15,-4.68 -2.44,-7.62 -0.35,-3.67 1.18,-6.09 0.75,-9.1 -2.52,-1.87 -17.65,-2.02 -21.99,-1.85 -4.94,0.19 -4.5,2.14 -4.9,6.81 -0.35,3.96 -1.71,6.61 -2.15,10.07z"/>
   <path class="fil2" d="M46.6 34.86l1.52 -0.08c0.44,2.24 1.11,3.72 3.41,4.15 4.89,0.9 8.65,-3.48 5.97,-7.63 -1.34,-2.08 -2.72,-1.79 -5.69,-2.36 -1.73,1.87 -3.42,2.25 -3.66,5.55l-1.55 0.37z"/>
   <path class="fil2" d="M101.31 36.86c0.13,3.38 0.88,2.55 2.49,4.91 0.54,-1.36 0.01,-0.43 1.27,-1.09 1.11,-0.58 2.8,-0.32 1.8,-4.7l-2.25 -0.97c-2.24,0.63 -2.27,0.39 -3.31,1.85z"/>
   <path class="fil2" d="M73.86 39.69c3.61,-1.71 2.39,-0.86 3.68,-4.41 -1.88,-1.1 -0.15,-0.93 -3.65,-1.96 -1.37,0.8 -2.62,0.73 -2.58,2.83 0.03,1.67 1.19,2.25 2.08,3.07 0.06,0.06 0.18,0.18 0.23,0.23 0.06,0.05 0.17,0.15 0.24,0.24z"/>
   <path class="fil3" d="M91.57 35.15c-0.94,2.33 -1.21,5.64 2.31,5.58 3.49,-0.06 2.78,-3.09 2.02,-5.44l-4.33 -0.14z"/>
   <path class="fil2" d="M88.48 34.2l-4.71 -0.05c-0.87,1.88 -1.23,4.97 1.84,5.33 3.68,0.43 3.01,-2.88 2.87,-5.28z"/>
  </g>
 </g>
</svg>
