<?xml version="1.0" encoding="UTF-8"?>
<!DOCTYPE svg PUBLIC "-//W3C//DTD SVG 1.1//EN" "http://www.w3.org/Graphics/SVG/1.1/DTD/svg11.dtd">
<!-- Creator: CorelDRAW 2020 (64-Bit) -->
<svg xmlns="http://www.w3.org/2000/svg" xml:space="preserve" width="150px" height="212px" version="1.1" style="shape-rendering:geometricPrecision; text-rendering:geometricPrecision; image-rendering:optimizeQuality; fill-rule:evenodd; clip-rule:evenodd"
viewBox="0 0 150 212.14"
 xmlns:xlink="http://www.w3.org/1999/xlink"
 xmlns:xodm="http://www.corel.com/coreldraw/odm/2003">
 <defs>
  <style type="text/css">
   <![CDATA[
    .fil0 {fill:#E20612}
   ]]>
  </style>
 </defs>
 <g id="Layer_x0020_1">
  <metadata id="CorelCorpID_0Corel-Layer"/>
  <g id="_3084168247984">
   <path class="fil0" d="M61.01 77.78c11.98,9.79 25.99,4.11 25.19,-10.79 -0.27,-4.93 -6.58,-25.61 -13.36,-29.06 -10.55,9.64 -16.15,30.21 -11.83,39.85z"/>
   <path class="fil0" d="M61.01 77.78c-11.82,-10.43 -19.28,-9.81 -32.3,-6.92 -4.42,0.98 -6.28,0.27 -9.81,3.95 0.99,3.74 0.5,2.51 3.87,6.1 1.79,1.91 4.29,4.25 6.41,6.08 22.01,18.96 39.56,2.4 31.83,-9.21z"/>
   <path class="fil0" d="M102.2 136.73c8.4,-12.56 -3.22,-43.81 -19.89,-37.22 -10.28,4.07 -8.74,16.81 -4.59,22.24 5.34,7 17,14 24.48,14.98z"/>
   <path class="fil0" d="M127.72 78.09c-30.36,-12.7 -48.37,0.58 -45.27,11.87 3,10.92 27.41,12.77 45.27,-11.87z"/>
   <path class="fil0" d="M39.26 132.55c2.86,0.87 0.98,2.39 10.86,-2.63 10.45,-5.31 30.5,-18.84 18.52,-30.18 -18.46,-17.46 -28.48,19.81 -29.38,32.81z"/>
   <path class="fil0" d="M141.55 111.66c-34.49,-33.82 -56.18,1.71 -18.05,3.9 5.59,0.32 15.11,1.91 18.05,-3.9z"/>
   <path class="fil0" d="M69.59 160.34c7.79,-9.01 18.39,-42.09 -0.66,-36.01 -11.47,3.66 -5.59,32.25 0.66,36.01z"/>
   <path class="fil0" d="M87.47 64.74l7.5 6.63c7.8,-2.87 9.81,-3.87 14.26,-13.5 2.43,-5.25 4.89,-13.39 4.86,-18.03 -8.36,-0.97 -24.69,14.68 -26.62,24.9z"/>
   <path class="fil0" d="M36.74 34.6c-0.11,0.02 -4.99,-1.28 -4.55,7.49 0.32,6.21 8.61,23.07 17.75,20.84 14.05,-3.44 -3.14,-30.15 -13.2,-28.33z"/>
   <path class="fil0" d="M9.06 112.76c9.87,3.41 29.81,-0.92 34.86,-14.92 -7.38,-5.67 -13.27,-3.47 -19.53,-0.15 -5.23,2.78 -12.83,9.09 -15.33,15.07z"/>
   <path class="fil0" d="M80.42 88.62l-6.39 -4.61c-5.94,2.12 -12.98,9.41 -5.47,13.91 7.38,4.42 12.08,-4.05 11.86,-9.3z"/>
  </g>
 </g>
</svg>
