<?xml version="1.0" encoding="UTF-8"?>
<!DOCTYPE svg PUBLIC "-//W3C//DTD SVG 1.1//EN" "http://www.w3.org/Graphics/SVG/1.1/DTD/svg11.dtd">
<!-- Creator: CorelDRAW 2020 (64-Bit) -->
<svg xmlns="http://www.w3.org/2000/svg" xml:space="preserve" width="150px" height="212px" version="1.1" style="shape-rendering:geometricPrecision; text-rendering:geometricPrecision; image-rendering:optimizeQuality; fill-rule:evenodd; clip-rule:evenodd"
viewBox="0 0 150 212.14"
 xmlns:xlink="http://www.w3.org/1999/xlink"
 xmlns:xodm="http://www.corel.com/coreldraw/odm/2003">
 <defs>
  <style type="text/css">
   <![CDATA[
    .fil0 {fill:#E20612}
   ]]>
  </style>
 </defs>
 <g id="Layer_x0020_1">
  <metadata id="CorelCorpID_0Corel-Layer"/>
  <g id="_3084091106176">
   <path class="fil0" d="M55.17 88.72c15.35,1.98 24.24,-10.25 15.68,-22.47 -2.83,-4.04 -19.11,-18.26 -26.7,-17.61 -3.85,13.76 2.26,34.18 11.02,40.08z"/>
   <path class="fil0" d="M55.17 88.72c-15.54,-2.61 -21.56,1.86 -31.08,11.2 -3.23,3.16 -5.18,3.54 -6.23,8.54 2.81,2.65 1.74,1.86 6.5,3.13 2.54,0.68 5.89,1.34 8.65,1.77 28.71,4.46 34.86,-18.87 22.16,-24.64z"/>
   <path class="fil0" d="M121.3 117c0.48,-15.11 -25.9,-35.49 -36.56,-21.09 -6.58,8.89 1.47,18.89 7.85,21.31 8.24,3.12 21.84,2.9 28.71,-0.22z"/>
   <path class="fil0" d="M111.97 53.73c-32.48,5.26 -40.76,26.05 -32.16,34 8.32,7.69 30.02,-3.65 32.16,-34z"/>
   <path class="fil0" d="M65.65 146.72c2.89,-0.78 2.1,1.51 7.83,-7.98 6.07,-10.03 15.94,-32.11 -0.23,-35.41 -24.89,-5.07 -13.71,31.87 -7.6,43.39z"/>
   <path class="fil0" d="M141.45 74.92c-47.15,-10.48 -46.79,31.14 -13.26,12.85 4.91,-2.68 13.84,-6.36 13.26,-12.85z"/>
   <path class="fil0" d="M106.09 154.28c1.85,-11.77 -6.63,-45.45 -19.59,-30.23 -7.8,9.17 12.29,30.34 19.59,30.23z"/>
   <path class="fil0" d="M70.74 63.67l9.88 1.67c5.1,-6.56 6.28,-8.48 4.97,-19 -0.71,-5.75 -2.93,-13.95 -5.41,-17.88 -7.61,3.59 -13.2,25.51 -9.44,35.21z"/>
   <path class="fil0" d="M11.74 64.89c-0.08,0.07 -4.91,1.55 0.1,8.76 3.55,5.11 19.51,15.04 26.08,8.31 10.11,-10.34 -18.59,-23.93 -26.18,-17.07z"/>
   <path class="fil0" d="M29.56 145.87c10.18,-2.32 24.81,-16.53 21.7,-31.09 -9.25,-0.91 -13.1,4.07 -16.65,10.2 -2.97,5.12 -6.09,14.49 -5.05,20.89z"/>
   <path class="fil0" d="M77.38 87.67l-7.86 -0.54c-3.92,4.94 -6.05,14.85 2.71,14.7 8.6,-0.15 8.11,-9.82 5.15,-14.16z"/>
  </g>
 </g>
</svg>
