<?xml version="1.0" encoding="UTF-8"?>
<!DOCTYPE svg PUBLIC "-//W3C//DTD SVG 1.1//EN" "http://www.w3.org/Graphics/SVG/1.1/DTD/svg11.dtd">
<!-- Creator: CorelDRAW 2020 (64-Bit) -->
<svg xmlns="http://www.w3.org/2000/svg" xml:space="preserve" width="480px" height="679px" version="1.1" style="shape-rendering:geometricPrecision; text-rendering:geometricPrecision; image-rendering:optimizeQuality; fill-rule:evenodd; clip-rule:evenodd"
viewBox="0 0 480 678.86"
 xmlns:xlink="http://www.w3.org/1999/xlink"
 xmlns:xodm="http://www.corel.com/coreldraw/odm/2003">
 <defs>
  <style type="text/css">
   <![CDATA[
    .fil0 {fill:#00532C}
   ]]>
  </style>
 </defs>
 <g id="Layer_x0020_1">
  <metadata id="CorelCorpID_0Corel-Layer"/>
  <path class="fil0" d="M190.78 545.81c2.81,-4.24 5.86,-9.06 7.24,-14.86 4.44,0.86 7.94,3.01 11.79,4.75 11.23,5.07 6.7,7.69 8.07,23.15 0.44,4.95 1.16,9.33 1.81,14.19 -14.04,-7.35 -12.85,-3.04 -13.48,-26.46 -3.41,1.8 -8.21,7.66 -11.19,10.75 -2.21,2.3 -2.47,3.85 -6.53,3.02 -2.73,-0.56 -6.19,-1.27 -8.3,-2.4l10.59 -12.14zm-1.36 -28.24c-0.94,0.42 1.21,0.68 -2.54,0.54 -0.7,-0.02 -1.16,-0.13 -1.7,-0.44 -1.65,-0.93 -4.53,-8 -4.99,-9.57 -0.8,-2.74 4.08,-9.32 6.59,-11.4 3.49,6.26 3.18,13.82 2.64,20.87zm29.21 -21.32c4.37,7.73 5.63,14.32 2.2,23.93 -3.51,9.81 -12.94,4.59 -19.98,1.12 0.52,-14.12 0.86,-25.53 -8.31,-38.45 -1.99,-2.8 -5.42,-6.52 -6.58,-8.76 3.76,-1.85 7.27,-3.82 10.88,-2.04 8.56,4.24 16.83,15.45 21.79,24.2zm-31.96 31.37c-0.05,9.88 -15.87,24.74 -27.3,29.53 -45.66,19.12 -84.74,-43.3 -57.08,-90.13 12.02,-20.35 43.56,-41.24 78.57,-28.97 7.62,2.67 13.33,5.84 19.04,10.03 9.6,7.06 20.86,19.46 27.06,30.19 3.14,5.43 9.04,13.64 1.75,18.22 -4.29,0.73 -11.48,-21.54 -26.28,-30.8 -5.41,-3.38 -4.52,-0.96 -7.03,-7.47 -1.16,-3 -3.63,-5.76 -7.17,-6.58 -15.31,-3.58 -12.12,12.71 -16.87,13.32 -1.15,0.14 -0.64,0.11 -1.83,-0.12 -7.16,-1.36 -11.92,-4.87 -25.44,-1.23 -9.9,2.65 -16.51,8.11 -20.58,14.16 -4.71,6.99 -6.53,18.34 -4.03,28.14 5.61,21.91 27.35,13.91 23.35,-0.77 -3.3,-12.1 -13.29,-2.43 -12.36,-13.2 0.58,-6.65 4.91,-11.8 10.75,-15 8.51,-4.67 20.25,-3.78 28.48,0.5 5.54,2.88 14.96,10.95 16.03,17.29l-12.86 1.23c-2.03,-3.92 -5.69,-7.38 -8.5,-11.04l-3.13 13.53c-3.46,2.32 -9.91,2.75 -13.05,5.52l12.1 7.21 0.37 12.39c-6.53,1.65 -5.85,5.17 -11.88,2.25 -15.95,-7.71 -23.78,18.01 -8.25,21.89 5.3,1.32 9.67,-0.91 12.07,-3.8 4.59,-5.53 -0.52,-5.97 7.35,-9.59 9.3,-4.28 14.94,-7.36 26.72,-6.7zm31.92 -78.68c2.79,-4.25 7.33,-10.82 10.94,-14.84l18.07 1.75c1.32,8.5 -5.28,32.21 -8.49,39.62 -1.71,-1.65 -3.01,-4.56 -4.68,-7.09 -8.66,-13.14 -9.12,-11.03 -15.84,-19.44zm24.31 -24.52c-8.39,-11.33 -1.41,-7.63 1.64,-21.63l2.97 13.16c0.49,4.87 0.41,9.96 0.6,14.98l-5.21 -6.51zm-96.13 -0.63c-5.18,-18.88 -3.03,-15.17 6.59,-24.33 3.12,5.09 4.31,8.68 7.81,13.15l8.47 10.86 -22.87 0.32zm67.6 -29.53c1.6,-1.56 4.38,-2.77 6.19,-4.12 2.22,-1.66 3.83,-3.52 5.38,-5.12 2.1,-2.18 2.93,-3.28 4.56,-5.9 0.95,-1.51 1.2,-2.08 2.02,-3.61l1.84 -2.95c2.62,4.2 9.16,20.96 9.97,26.63 -3.73,0.71 -15.75,5.39 -17.86,5.04 -1.2,-0.2 -10.66,-8.2 -12.1,-9.97zm0.37 51.25c-18.33,-15.45 -36.69,-22.38 -49.23,-44.49 -12.53,-22.1 -5.65,-57.95 10.52,-69.11 26.92,-18.58 52.28,6.25 49.66,31.75 -1.15,11.22 -12.12,23.14 -24.36,22.46 -6.49,-0.36 -12.11,-4.36 -14.68,-8.68 -4.01,-6.76 -2.08,-12.3 0.93,-17.86 18.22,4.13 17.17,-12 9.84,-15.5 -9.52,-4.54 -17.71,8.54 -20.13,14.89 -6.33,16.68 2.6,41.07 32.3,36.61l-0.08 15.61c-2.1,3.73 -14.45,8.84 -18.13,12.37l19.43 6.91c1.55,1.11 3.88,13.58 3.93,15.04zm-32.49 -193.66c11.33,3.63 11.55,1.91 22.66,0.86 -2.02,5.6 0.92,11.09 5.5,12.38 8,2.25 3.68,-2.98 11.94,6.52 4.1,4.72 4.65,6.74 2.38,13.84 -1.28,3.98 -2.6,10.84 -4.08,14.36 -0.14,-0.12 -0.33,-0.3 -0.42,-0.37 -0.08,-0.08 -0.31,-0.29 -0.41,-0.38 -10.17,-9.51 -20.4,-28.03 -40.85,-32.85l3.28 -14.36zm32.59 -5.15c24.45,-21.58 2.43,-58.33 -24.33,-39.81 -5.32,3.68 -10.78,17.99 -0.28,19.44 6.46,0.89 9.54,-3.77 10.1,-9.55l0.46 -2.8c2.98,-6 21.21,1.77 12.97,18.6 -6.08,12.43 -28.28,17.96 -39.44,-0.04 -20.69,-33.39 28.63,-67.24 54.14,-29.95 7.02,10.27 16.3,33.31 10.06,48.27 -4.35,10.45 -6.98,20.89 -13.33,15.53 -5.17,-4.36 -2.24,-7.79 -2.74,-11.57 -0.78,-5.81 -5.86,-6.76 -7.61,-8.12zm37.13 -41.14c0.19,3.39 0.09,6.6 -0.54,9.82 -1.25,6.44 -1.45,6.13 -3.37,7.38 -2.66,-1.51 -2.13,-2.8 -2.94,-6.19 -1.37,-5.74 -4.44,-13.11 -7.22,-17.77 -3.68,-6.16 -10.4,-13.22 -16.38,-16.39l1.78 -12.13c3.84,1.64 21.65,15.21 23.99,18.33 3.02,4.03 4.31,10.73 4.68,16.95zm-12.78 -47.15c1.95,3.3 5.29,14.14 -1.63,10.26l-7.74 -6.56 9.37 -3.7zm-22.6 -105.95l19.44 6.17 4.53 19.66c2.43,-1.21 6.95,-8.52 7.92,-10.8 5.19,5.58 2.23,27.96 -3.38,30.42 -4.69,1.09 -9.24,-4.89 -8.82,-9.77 0.61,-6.89 -0.32,-10.74 -6.07,-13.11 -13.2,-5.43 -19.31,14.87 -7.73,19.04 9.21,3.31 6.06,-1.54 12.54,7.62 8.48,11.98 1.88,19.56 1.78,33.71 -0.05,6.51 1.41,12.82 1.38,18.21l-13.4 -6.67 -1.41 -20.07c-3.65,1.44 -9.37,10.63 -13.51,13.1 -3.19,1.9 -16.92,-3.03 -21.26,-3.62 1.55,3.68 8.81,15.26 8.66,18.34 -0.15,3.21 -8.45,13.38 -9.83,17.67l20.6 -3.28c2.45,4.01 5.8,6.39 7.8,10.25 -24.32,-7.67 -41.09,1.78 -50.53,16.86 -10.95,17.5 -3.74,43.83 9.64,50.93 -1.32,1.87 0.22,0.15 -1.38,1.56 -0.61,0.53 -1.36,1 -2,1.37 -1.11,0.64 -2.42,1.29 -3.66,1.95 -8.66,4.62 -7.79,-2.32 -24.16,-8.99l3.98 22.14c-3.26,4.41 -10.49,9.19 -14.58,13.39 -2.58,2.64 -1.24,-0.05 -1.84,2.49l22.21 2.86 9.06 20.63c1.56,-1.8 3.93,-7.09 5.24,-9.82l3.89 -8.28c3.19,-5.15 18.29,-4.82 21.16,-2.28 3.56,3.16 10.89,9.57 11.76,13.7 -9.4,3.32 -5.95,-1.95 -11.78,-4.08 -13.24,-4.84 -17.51,16.07 -4.89,17.86 6.89,0.98 9.01,-3.08 10.8,-7.54 8.17,-0.53 10.94,-2.18 15.25,3.31 5.65,7.19 4.25,4.32 4.67,15.55 -9.77,-3.82 -14.01,-7.91 -26.1,-7.45 -5.13,0.2 -9.42,1.25 -13.7,3.1 -4.32,1.87 -7.01,4.74 -10.79,6.48 -2.32,-14.44 -10.64,-24.21 -25.72,-25.9 -15.53,-1.74 -28.09,9.73 -28.84,23.36 -0.81,14.97 12.12,28.7 28.29,21.14 14.14,-6.62 5.8,-22.38 -4.57,-15.92 -3.57,2.22 -3.4,4.04 -4.86,8.84 -13.51,0.06 -13.01,-19.8 -3.45,-25.97 12.81,-8.26 25.14,0.48 29.34,9.77 6.9,15.25 -9.74,26.38 -9.68,52.9 0.01,8.38 1.92,13.28 2.52,19.93l-13.02 -1.57 -8.35 -18.28 -8.72 17.83c-1.08,0.42 -0.26,0.15 -2.01,0.62 -0.72,0.2 -1.91,0.37 -2.63,0.47l-15.91 1.76c3.74,4.44 10.27,10.39 14.8,13.53l-3.85 20.8c18.4,-7.49 11.8,-14.23 29.31,-3.68l-1.59 0.92c-5.7,2.57 -12.07,4.52 -17.53,7.48 -5.43,2.94 -6.16,1.6 -12.24,1.5 -7.05,-0.11 -6.33,1.06 -11.73,-2.83 -7.52,-5.43 -16.21,4.01 -11.45,11.48 1.47,2.29 5.64,4.66 9.87,3.09 5.44,-2.01 0.92,-4.68 11.09,-3.9 -2.56,4.58 -6.55,7.36 -9.47,11.1 -16.04,20.53 -11.88,34.41 -19.34,41.96 -6.33,6.42 -6.37,-1.99 -15.32,1.57 -4.7,1.88 -7.48,7.82 -5.36,13.42 1.68,4.44 6.78,8.05 13.33,5.85 7.98,-2.69 3.71,-9.66 10.5,-11.01 1.57,7.76 1.68,13.72 4.29,21.38 2.46,7.25 5.89,11.81 8.14,17.45 -9.36,2.31 -7.87,3.66 -13.35,-1.76 -2.66,-2.64 -8.09,-8.51 -10.79,-10.14l-1.42 20.05 -17.87 9.6 18.65 8.05c0.65,4.52 1.69,17.05 3.98,20.09 3.59,-5.48 8.48,-10.46 12.87,-15.2l19.91 2.76c-0.52,-5.34 -10.7,-13.52 -9.78,-18.47 0.21,-1.13 2.93,-6.02 3.58,-6.97l1.03 0.64c0.83,0.61 0.33,0.15 1.38,1.1l7.07 6.65c10.98,8.44 10.06,3.28 18.33,17.13 2.6,4.35 5.79,6.52 5.17,13.31 -1.3,14 14.9,14.53 18.2,5.19 2.21,-6.26 -1.01,-9.99 -5,-11.87 -3.89,-1.84 -8.03,-6.02 -7.01,-10.51 3,-2.88 13.74,-2.33 18.82,-3.8 6.3,-1.83 10.98,-4.8 16.19,-7.49l0.78 1c1.47,2.18 5.98,9.45 5.82,11.36 -2.83,5.63 -7.2,12 -10.29,17.4l20.75 -3.18c0.96,1.94 11.01,13.89 12.77,15.23 1.76,-3.2 1.69,-17.84 4.02,-19.9l12.88 -5.71c2.34,3.61 3.17,9.77 4.81,13.96 1.9,4.86 3.87,8.64 6.13,13.18 2.56,5.15 10.85,21.1 14.09,24.49l17.31 0.04 -11.57 -24.01 -11.13 -18.87 -9.43 -30.24 -6.29 -27.09 14.27 -30.96 11.85 -28.55 6.29 -25.16 -0.73 -26.37 -8.95 -41.12 -7.98 -13.06 -6.29 -18.39 -4.59 -24.19 -0.97 -19.35 10.64 -23.71 14.52 -35.8 7.74 -36.29 -6.78 -29.02 -8.71 -18.87 0.49 -47.9 11.4 -32.9 -22.64 -57.35c-0.08,-0.03 -0.16,-0.06 -0.24,-0.1 0.17,3.99 0.05,7.95 0.05,11.93 0.02,5.13 1.27,7.47 -2.49,9.95 -5.09,3.37 -11.1,5.43 -14.82,9.49z"/>
 </g>
</svg>
