<?xml version="1.0" encoding="UTF-8"?>
<!DOCTYPE svg PUBLIC "-//W3C//DTD SVG 1.1//EN" "http://www.w3.org/Graphics/SVG/1.1/DTD/svg11.dtd">
<!-- Creator: CorelDRAW 2020 (64-Bit) -->
<svg xmlns="http://www.w3.org/2000/svg" xml:space="preserve" width="480px" height="679px" version="1.1" style="shape-rendering:geometricPrecision; text-rendering:geometricPrecision; image-rendering:optimizeQuality; fill-rule:evenodd; clip-rule:evenodd"
viewBox="0 0 480 678.86"
 xmlns:xlink="http://www.w3.org/1999/xlink"
 xmlns:xodm="http://www.corel.com/coreldraw/odm/2003">
 <defs>
  <style type="text/css">
   <![CDATA[
    .fil0 {fill:#00532C}
   ]]>
  </style>
 </defs>
 <g id="Layer_x0020_1">
  <metadata id="CorelCorpID_0Corel-Layer"/>
  <path class="fil0" d="M381.56 543.88c-18.92,1.84 2.57,-8.55 -1.35,-37.74 3.65,2.1 6.45,4.68 9.73,6.44 -1.55,14.5 0.78,16.35 -8.38,31.3zm-93.16 -49.08c9.66,-6.74 14.5,-15.27 20.32,-13.75 2.32,0.6 6.33,1.97 8.33,2.98 -10.57,11.2 -11.71,27.81 -1.54,41.14 8.08,10.59 29.13,15.14 40.2,3.35 11.29,-12.02 4.41,-30.89 -11.47,-33.71 -24.04,-4.28 -16.51,25.9 -1.88,16.35 2.7,-1.76 0.99,-1.75 4.08,-2.55 10.78,5.21 0.99,17.94 -11.13,16.15 -20.28,-3 -23.03,-33.18 0.79,-40.03 28.23,-8.11 50.25,35.58 18.79,59.11 -20.96,15.67 -38.28,6.04 -54.79,-2.48 -16.5,-8.51 -24.49,-4.11 -26.52,-10.59 -0.94,-3.03 2.41,-11.2 4.29,-13.18 3.46,-3.63 7.37,-2.08 9.61,-8.17 4.05,-10.98 -10.52,-19.13 -17.67,-9.51 -4.82,6.49 -0.22,8.85 0.02,13.71 0.18,3.53 -3.5,9.59 -5,12.68 -2.21,4.55 -3.91,8.29 -7.45,11.14 -12.72,10.22 -21.4,-0.25 -12.36,-26.9 3.4,-10.02 9.95,-13.05 18.8,-17.5 6.16,-3.1 18.63,-10.24 24.39,-11.82l0.19 13.58zm56.43 -68.1c50.44,-1.13 41.21,47.27 13.85,43.18 -9.57,-1.43 -15.71,-13.29 -5.79,-17.32 3.23,1.15 3.4,5.24 8.26,6.03 4.45,0.72 7.66,-1.51 8.8,-4.56 5.19,-13.81 -21.58,-21.41 -30.19,-2.73 -4.93,10.71 0.42,15.44 3.42,21.8 -10.79,0.3 -11.38,1.85 -19.29,4.89 -5.63,-12.93 -5.81,-11.35 -1.98,-16.33l10.14 -14.49 -22.88 1.85 -13.5 -18.18 -5.46 21.6c-5.16,3.85 -16.4,3.99 -21.13,8.05l14.67 8.51c-1.07,1.43 -0.03,0.28 -1.36,1.44l-4.56 2.77c-2.13,1.12 -4.23,2.31 -6.28,3.41 -3.71,1.97 -9.21,6.65 -13.45,5.17 -1.11,-4.98 10.48,-20.76 11.44,-44.37 5.93,-2.27 9.2,-5.45 17.3,-7.6 10.56,-2.8 23.36,-2.14 34.6,-2.07l23.39 -1.05zm14.43 -33.37c-29.02,4.72 -20.16,-34.01 4.08,-26.48 16.85,5.23 22.37,28.87 3.36,42.04 -15.28,10.6 -40.64,8.11 -60.59,8.67 -9.78,0.27 -29.56,5.65 -16.2,-7.27 4.88,-4.72 11.33,-13.13 14.29,-20.03 2.76,1.57 3.61,3.43 5.9,5.69 2.22,2.2 3.63,3.12 5.65,5.24l1.97 -19.62c3.81,-2.25 9.82,-5.2 14.3,-6.91 -5.24,25.82 18.07,33.16 31.76,26.5 6.09,-2.96 14.01,-12.16 6.82,-19.79 -3.77,-4.01 -17.47,-2.93 -11.34,11.96zm-41.72 -28.99l-1.56 -11.12c4.25,1.93 7.06,9.74 22.29,9.9 -0.56,2.73 -3.25,4.88 -4.61,8.31l-16.12 -7.09zm-71.09 -6.55c-3.01,-1.16 -6.01,-11.07 -6.06,-12.43l9.08 -0.08c0.22,3.12 -1.19,10.23 -3.02,12.51zm30.34 -47.15c5.5,3.05 7.64,5.65 14.82,7.81 7.72,2.33 11.39,1.45 19.37,0.85 -2.52,13.23 -4.18,14.14 1.06,27.39 -1.36,2.11 -3.62,4.91 -5.09,6.49 -1.01,1.08 -1.85,1.69 -2.85,2.73 -1.23,1.26 -1.47,1.8 -2.86,3.34l-19.44 -3.44c1.05,3.43 3.23,6.4 5.01,9.36 8.43,14 1.94,8.43 -4.69,25.87l14.34 -3.05c-1.45,6.32 -9.95,15.52 -13.76,19.16 -2.58,2.48 -5.61,6.86 -11.46,4.32 -3.96,-1.72 -4.26,-5.68 -5.7,-10.49 -3.09,-10.3 -8.24,-19.39 -9.36,-23.74 -1.55,-5.98 1.57,-21.84 3.76,-26.45 3.71,1.09 3.74,5.23 8.65,10.14l5.23 -19.08 18.92 -5.65c-1.63,-1.94 -14.09,-9.89 -16.44,-10.95l0.49 -14.61zm-0.26 -23.02c-0.97,-11.19 7.25,-21.74 18.21,-21.24 11.93,0.56 18.85,14.61 8.16,21.52 -3.04,-1.42 -5.26,-4.35 -10.32,-2.37 -3.2,1.25 -5.24,4.11 -4.58,8.34 1.29,8.26 11.81,9.84 18.97,6.09 12.8,-6.72 16.73,-25.23 4.81,-37.16 -11.88,-11.9 -30.84,-7.82 -38.9,3.08 -12.47,16.85 -7.04,28.09 0.72,41.29 -1.82,2.08 -4.83,4.08 -6.9,5.75 -7.84,6.35 -4.27,4.89 -24.17,-2.18 0.45,5.06 5.69,13.6 6.11,17.66 0.29,2.82 -4.03,7.07 -6.68,10.57l-2.77 3.01c-3.48,-6.97 -3.58,-17.86 -2.84,-26.5 0.91,-10.68 1.81,-15.55 9.9,-19.8 6.88,-3.61 5.08,2.13 11.87,-0.15 9.95,-3.35 -0.42,-19.53 -7.73,-10.21 -0.75,0.97 -2.66,5.82 -8.42,5.37 -0.04,-2.33 9.14,-31.12 14.3,-34.16 16.53,-9.72 16.97,0.44 24.4,-2.18 10.3,-3.62 0.09,-20.1 -7.99,-11.27 -2.27,2.49 -0.23,2.23 -4.58,3.48 -2.5,0.71 -4.68,1.21 -7.34,1.24 0.95,-8.08 17.03,-14.24 26.8,-14.4 38.74,-0.67 59.98,40.38 37.17,65.8 -17.47,19.46 -46.51,8.06 -48.2,-11.58zm-1.3 -64.05c0.36,-5.65 7.13,-9.7 9.67,-15.87 0.94,0.97 0.46,0.25 1.22,1.67l1.57 5.73c0.59,2.46 1.3,4.88 1.73,7.35l-14.19 1.12zm-7.45 -26.31c2.96,0.7 9.77,2.36 11.96,4.28 -1.53,2.19 -3.82,4.94 -5.41,6.92 -1.98,2.48 -2.55,4.9 -5.69,4.89l-0.86 -16.09zm-1.42 -5.14c-2.14,-11.61 -9.63,-24.43 -12.78,-37.25 -1.56,-6.38 -3.92,-14.67 -0.85,-21.2 10.43,-22.17 42.46,-14.1 43.45,5.91 0.9,18.15 -24.81,20.46 -22.99,3.91 3.98,-1.75 6.09,-0.21 7.89,-4.9 1.36,-3.53 0.98,-7.07 -1.49,-9.69 -5.89,-6.24 -13.66,-0.24 -15.85,5.3 -2.83,7.19 -0.98,15.84 2.58,20.85 2.87,4.04 6.44,6.83 11.27,8.05 5.75,1.46 4.48,-2.06 4.54,20.05 -5.4,2.16 -10.3,6.97 -15.77,8.97zm-3.41 438.27l17.31 0.04c-3.59,-9.63 -20.22,-29.77 -26.19,-41.41 -3.91,-7.63 -8.81,-15.84 -5.85,-26.08 4.97,-17.21 33.46,-23.68 44.68,-11.13 5.45,6.1 4.13,20.42 -0.46,26.32 -5.46,7.01 -15.65,10.15 -22.55,1.53 -9.48,-11.88 7.48,-22.96 12.5,-17.38 1.49,1.65 2.94,3.09 5.88,2.84 9.18,-0.8 5.49,-15.81 -12.39,-11.59 -32.56,7.69 -11.16,52.17 16.29,35.61 9.62,-5.8 13.46,-18.56 10.91,-33.63 9.54,1.8 10.28,9.97 13.92,18.16 1.77,3.98 4.39,7.19 2.23,11.03 -8.54,15.09 12.38,25.74 19.82,13.44 2.26,-3.73 2.31,-8.9 0.17,-12.79 -2.3,-4.18 -5.33,-4.88 -10.86,-6.1 -1.27,-3.87 -3.61,-8.18 -4.59,-12.4 -1.63,-7.01 11.48,-3.37 21.25,-6.28 6.54,-1.95 11.59,-4.84 16.18,-8.04 6.35,-4.43 13.68,3.34 14.77,4.95 1.76,2.57 -2.18,14.63 -2.85,18.86 3.12,-1.02 9.28,-4.82 12.52,-6.65 5.35,-3.03 6.95,0.16 12.67,3.32 4.68,2.58 9.86,4.5 9.83,9.42 -0.04,6.48 2.15,10.15 7.54,11.93 13.16,4.34 23.68,-18.12 2.66,-21.52 -2.81,-0.45 -14.96,-13.5 -15.76,-15.23 2.51,-1.59 11.33,-8.08 12.29,-11.42l-17.5 -2.12c-1.89,-4.02 -5.12,-10.36 -6.39,-14.34 1.57,-1.9 11.33,-9.23 13.17,-9.04 2.2,0.22 12.74,5.3 16.17,6.28 -0.92,-3.6 -5.8,-14.9 -4.91,-17.75 0.79,-2.54 8.97,-10.16 10.89,-13.67l-17.77 0.13c-1.93,-2.01 -8.59,-13.02 -9.37,-15.32 -3.51,3.66 -3.88,15.06 -6.76,17.12l-12.89 3.34c-5.23,-6.59 -5.45,-15.13 -15.36,-20.15l1.66 -0.88c0.17,-0.06 0.41,-0.15 0.6,-0.22 6.96,-2.3 10.38,-2.96 15.93,-8.29 16.1,-15.47 8.12,-40.62 -10.3,-49.37l-5.02 -2.9c29.27,-4.91 32.56,-60.85 -9.68,-63.06 1.01,-3.08 4.43,-5.17 5.94,-10.12 4.08,-13.32 -3.99,-30.87 -20.04,-31.59 -24.37,-1.1 -22.92,26.21 -8.66,21.41 1.82,-0.61 3.94,-2.65 4.69,-4.18 1.39,-2.82 0.85,-4.68 1.03,-7.86 10.82,-2.35 18.19,9.27 14.44,20.1 -7.14,20.61 -40.26,10.67 -37.46,-14.78 1.49,-13.59 9.54,-15.75 15.19,-22 11.92,-13.18 16.79,-36.67 6.3,-55.8 -7.04,-12.84 -24.99,-27.53 -45.99,-28.23 0.33,-3.44 8.82,-12.82 10.91,-16.53l23.71 1.55c-3.66,-6.72 -9.88,-12.38 -13.6,-19.28 1.81,-4.64 7.98,-17.95 8.38,-21.52l-21.7 7.15c-3.11,-1.65 -10.93,-7.96 -12.65,-10.63 7.94,-4.38 12.7,-4.78 16.26,-14.95 8.64,-24.67 -20.65,-44.94 -43.67,-34.74 -13.41,5.95 -2.36,-12.25 0.82,-23.38 3.4,-11.88 1.54,-17.72 -1.98,-28.02l14.17 1.11c-2.97,-5.84 -8.6,-11.19 -11.78,-16.94l7.72 -18.79c-4.48,1.06 -17.58,6.54 -20.6,5.23 -2.74,-1.18 -5.51,-4.54 -7.56,-6.22 -2.55,-2.07 -4.19,-4.52 -7.12,-5.75l22.64 57.35 -11.4 32.9 -0.49 47.9 8.71 18.87 6.78 29.02 -7.74 36.29 -14.52 35.8 -10.64 23.71 0.97 19.35 4.59 24.19 6.29 18.39 7.98 13.06 8.95 41.12 0.73 26.37 -6.29 25.16 -11.85 28.55 -14.27 30.96 6.29 27.09 9.43 30.24 11.13 18.87 11.57 24.01z"/>
 </g>
</svg>
